<svg fill="currentColor" viewBox="0 0 512 512">
  <path d="M438 131 275 36c-11-5-24-5-35 0L76 131c-11 6-18 18-18 30v190c0 12 7 23 18 30l43 24c21 11 27 11 36 11 31 0 47-19 47-52V177c0-2 2-6-1-6h-21c-2 0-7 4-7 6v187c0 15-14 29-38 17l-45-26-3-4V161c0-2 2-3 4-4l164-95a6 6 0 0 1 5 0l163 95c2 1 2 2 2 4v190c0 1 0 3-2 4l-163 95h-5l-42-25h-4c-11 6-14 7-25 11-2 1-6 2 2 7l55 32a34 34 0 0 0 17 5 34 34 0 0 0 17-5l163-94c11-7 16-18 16-30V161c0-12-5-24-16-30zM309 321c-44 0-53-12-56-34-1-2-3-5-5-5h-21c-3 0-5 3-5 6 0 27 15 61 87 61 52 0 82-20 82-56s-24-45-75-52c-51-6-56-10-56-22 0-9 4-23 42-23 34 0 46 8 51 30 1 3 3 4 5 4h21l4-1 1-4c-3-39-29-57-82-57-47 0-75 19-75 52 0 36 28 46 73 51 54 5 58 13 58 23 0 19-15 27-49 27z"/>
</svg>
