<svg fill="currentColor" viewBox="0 0 512 512">
  <path d="m169 413-1-2c-2-4-2-8-1-13H60l159-282 67 121 21-16-66-120c-1-2-9-14-22-14-6 0-15 2-22 15L36 387c-1 3-8 15-2 26 4 6 10 12 24 12h135c-14 0-21-6-24-12z"/>
  <path d="M475 388 346 155c-2-2-9-15-22-15-6 0-15 3-22 15l-16 28v54l38-67 128 228h-48c1 5 0 10-2 14l-1 1c-6 11-21 12-23 12h75c3 0 17-1 24-12 3-5 5-14-2-25z" class="alt2"/>
  <path d="M405 413v-1l1-2c1-4 2-8 1-12l-4-11-101-177-15-27h-1l-15 27-102 177-4 11c0 6 0 11 2 15 4 6 10 12 24 12h189c3 0 18-1 25-12zM286 237l92 161H193Z" class="alt"/>
</svg>
