<svg fill="currentColor" viewBox="0 0 512 512">
  <path d="m32 228 1 6c3 10 9 19 16 28 9 11 21 21 34 30l32 22 5 5-4 2c-14 7-28 15-40 25-8 6-15 12-20 20-9 13-12 27-5 42 1 5 4 8 8 11l4 2 12 3h10c12-2 23-6 33-12 15-11 26-25 30-44 4-13 4-26 0-39a42 42 0 0 0-1-4l-2-4 24-14h1l-2 5c-2 10-4 21-4 32 1 12 4 23 11 33 6 8 19 8 25 0l6-9 11-25 1-1-1 11c0 5 0 10 2 16 2 4 4 7 9 8 4 0 7-1 9-3a37 37 0 0 0 10-12l20-37 18-42 1-3 5 17 8 18c1 3 1 4-1 7l-24 29-5 7a13 13 0 0 0-2 5 6 6 0 0 0 5 7 34 34 0 0 0 10 0c11 0 21-4 30-11 11-8 15-20 12-34l-3-11v-4a349 349 0 0 0 26-43c2 12 6 24 12 35l-9 9c-7 7-12 14-15 24l-2 12c1 6 6 10 13 9 13-3 25-10 34-21 6-8 6-17 4-26l-2-7c3-1 6-3 10-3 18-4 35-4 52 3 10 3 18 10 23 20 6 12 3 23-9 31l-3 2a3 3 0 0 0-1 2l2 1c4 0 7-2 10-4 7-5 13-12 14-20v-8c-2-13-9-23-19-31-12-9-25-13-40-13a91 91 0 0 0-35 5l-9 4-2-3c-3-6-7-13-8-21v-16l4-16c1-2 1-4-2-5a10 10 0 0 0-3-1c-6-1-12 0-18 2-2 0-4 1-4 4l-1 4c-2 5-3 11-6 16-6 14-13 26-21 39l-3 5c-2-6-5-11-6-17s-2-13 0-19l4-15c1-2 1-3-1-4l-4-1a42 42 0 0 0-19 1c-2 1-3 2-3 4l-6 18-30 67-7 14-3 3v-10a614 614 0 0 1 5-25l6-21c1-2 1-4-1-6-3-4-9-4-12-2l-2 1 1-2-1-16c-2-7-6-10-13-10-3 0-7 0-9 2-13 4-22 13-30 23a9 9 0 0 1-3 2l-31 17-11 7-9-9-30-23c-8-7-17-15-23-24-5-7-8-14-8-23-1-10 2-20 8-29 7-12 16-22 27-30a269 269 0 0 1 90-48c20-6 40-9 61-7 8 1 16 3 23 7 6 3 10 7 12 13s2 12 1 19c-3 12-10 23-19 32-14 15-31 26-51 32a141 141 0 0 1-35 8c-9 1-19 0-28-4-6-2-12-5-16-10-1-1-2-2-3-1s-2 2-1 3c1 2 1 5 3 7 3 5 7 8 12 12 9 6 20 8 31 8 16 1 33-2 49-6 22-7 42-18 58-35 13-15 23-32 25-52 1-10 0-19-5-28-5-10-13-17-22-22-14-7-29-12-44-12h-16c-18 0-36 6-54 12l-38 17c-28 14-53 30-74 53-11 11-20 24-25 38a144 144 0 0 0-4 14m100 128c-2 16-9 29-21 39-6 6-14 11-23 12-3 1-6 1-9-1-5-2-6-6-6-10 0-6 2-12 6-18 4-8 10-13 17-19 10-8 21-15 33-22h1l2 19zm89-69-3 15c-5 17-12 34-19 50l-5 9a6 6 0 0 1-1 1c-2 2-4 2-5-1l-2-10-1-6c0-16 5-31 13-45l13-14a22 22 0 0 1 6-3c3 0 5 1 4 4zm62 78 22-26c1 10-16 29-22 26zm70-17-5 2c-1 1-2 0-2-1a9 9 0 0 1 0-3c3-10 9-19 17-26l1-1c3 11-1 23-11 29z"/>
</svg>
