<svg fill="currentColor" viewBox="0 0 512 512">
  <path d="M287 197c-8-6-31 5-38 21-8 21-21 52-33 65-13 14-14 3-13-5 3-19 22-63 32-76-4-5-28-4-45 22-7 10-21 44-38 70-3 6-8 2-4-12 4-15 15-57 30-91 38-7 79-13 111-13 4-1 7-5 0-5-27-1-68 2-106 7 7-14 15-26 23-31-8-5-26-3-36 12l-13 23c-28 4-52 9-64 14-12 4-11 20-3 17 20-7 40-13 61-18-15 34-27 75-30 91-7 40 18 40 30 24 13-17 40-78 44-84 2-2 3-1 2 1-30 61-28 84-3 79 11-2 31-21 36-31 1-3 3-2 2-1-19 50-44 90-60 103-15 12-26-13 27-49 8-5 4-13-5-10-27 4-106 29-140 53-3 2-5 3-5 7 0 2 4 2 5 0a364 364 0 0 1 126-44l-6 3c-29 11-46 36-40 48 5 11 33 7 46 0 32-18 56-52 72-99 14-42 31-89 35-91zm187 97c-52-7-165 2-215 15-15 4-11 12-3 11l3-1c41-8 141-15 198-4 7 1 28-20 17-21zm-172-6c14-8 36-53 50-77 1-2 3-1 2 1-36 62-21 69-6 68 19-1 36-29 40-35 2-2 3 0 2 2l-7 14c-5 10 0 14 4 15 6 3 22 1 24-9-16 0 23-76 27-81-11-6-28 1-35 16-17 32-30 58-39 58-17 1 19-71 25-74-3-5-26-3-39 17-4 7-32 56-39 64-12 14-13 2-10-12l6-18c8-18 16-24 22-30 35-39 55-70 47-83-7-11-31-6-46 17-28 42-53 99-57 125-3 26 16 28 29 22zm15-77 4-8c12-28 28-57 39-71 7-7 16 3-1 29-10 15-21 29-34 42l-7 9c-1 1-2 1-1-1z"/>
  <path d="M101 332c12-13 13-28 4-54-6-17-15-30-8-41s23 0 10 15l2 2c16 1 24-20 12-26-31-16-58 15-46 51 5 15 12 31 7 44-5 11-15 18-22 18-13 0-4-31 11-39 2 0 4-1 2-3-19-3-31 6-37 19-19 36 36 49 65 14zm338-106c5 11 12 22 8 32-4 8-8 11-13 12-7 1-5-20 7-26 1-1 2-3 1-5-15-1-23 6-27 15-13 27 29 35 49 8 9-11 9-21 1-40-5-12-13-21-8-29s18-1 8 10l3 1c11 1 16-15 7-19-24-10-46 16-36 41z"/>
</svg>
