<?xml version="1.0" encoding="UTF-8" standalone="no"?>
<svg
   id="svg1866"
   sodipodi:docname="vectors.svg"
   inkscape:version="1.1.1 (3bf5ae0d25, 2021-09-20, custom)"
   version="1.1"
   viewBox="0 0 512 512"
   height="512pt"
   width="512pt"
   fill="currentColor"
   xmlns:inkscape="http://www.inkscape.org/namespaces/inkscape"
   xmlns:sodipodi="http://sodipodi.sourceforge.net/DTD/sodipodi-0.dtd"
   xmlns="http://www.w3.org/2000/svg"
   xmlns:svg="http://www.w3.org/2000/svg">
  <defs
     id="defs232" />
  <sodipodi:namedview
     showborder="true"
     borderlayer="false"
     inkscape:showpageshadow="false"
     inkscape:pagecheckerboard="false"
     showgrid="true"
     inkscape:zoom="0.5"
     inkscape:cx="378"
     inkscape:cy="342"
     inkscape:window-width="2560"
     inkscape:window-height="1043"
     inkscape:window-x="0"
     inkscape:window-y="0"
     inkscape:window-maximized="1"
     pagecolor="#797979"
     inkscape:pageopacity="1"
     bordercolor="#ffffff"
     borderopacity="1"
     inkscape:pageshadow="0"
     inkscape:document-units="pt"
     id="namedview235"
     inkscape:current-layer="layer3"
     inkscape:snap-grids="true"
     showguides="false"
     objecttolerance="10000">
    <inkscape:grid
       type="xygrid"
       id="grid603"
       spacingx="31.999999"
       spacingy="31.999999"
       units="pt" />
  </sodipodi:namedview>
  <g
     inkscape:groupmode="layer"
     inkscape:label="vue"
     id="g352"
     sodipodi:insensitive="true">
    <path
       d="M 256,152.683 204.265,64 H 130.211 L 256,279.631 381.789,64 h -74.055 z"
       id="polygon1804"
       class="alt" />
    <polygon
       points="255.99989,309.15805 112.98154,64.000038 31.999964,64.000038 255.99989,448.00003 479.99981,64.000038 399.01824,64.000038 "
       id="polygon1806" />
  </g>
  <g
     inkscape:groupmode="layer"
     inkscape:label="upwork"
     id="g358"
     sodipodi:insensitive="true">
    <path
       d="m 345.41934,220.77419 c -25.29032,0 -33.41935,24.38709 -35.2258,38.83871 v 0.90322 l -3.6129,13.54839 c 10.83871,9.03226 24.38709,15.35484 37.93548,15.35484 18.06451,0 34.32258,-15.35484 35.2258,-35.22581 0,-18.06451 -15.35483,-33.41935 -34.32258,-33.41935 z"
       id="path354" />
    <path
       d="m 255.99999,31.999999 c -123.74193,0 -223.999991,100.258061 -223.999991,223.999991 0,123.74193 100.258061,224 223.999991,224 123.74193,0 224,-100.25807 224,-224 0,-123.74193 -100.25807,-223.999991 -224,-223.999991 z m 89.41935,292.645151 c -18.06451,0 -33.41935,-5.41935 -46.96774,-13.54838 l -15.35483,72.25806 h -35.22581 l 21.67742,-99.35484 c -9.03226,-12.64516 -18.06452,-27.09677 -24.3871,-40.64516 v 15.35484 c 0,37.03226 -29.80645,66.83871 -65.93548,66.83871 -36.12903,0 -65.93548,-29.80645 -65.93548,-66.83871 v -90.32258 h 34.32258 v 90.32258 c 0,18.06452 14.45161,32.51613 32.51613,32.51613 18.06451,0 32.51612,-14.45161 32.51612,-32.51613 v -90.32258 h 34.32258 c 7.22581,22.58065 18.96775,49.67742 34.32258,74.06452 9.03226,-34.32258 34.32258,-55.09678 65.93549,-55.09678 37.03225,0 67.74193,30.70968 67.74193,67.74194 -1.80645,38.83871 -32.51613,69.54838 -69.54839,69.54838 z"
       id="path356" />
  </g>
  <g
     inkscape:groupmode="layer"
     id="layer1"
     inkscape:label="stackoverflow"
     sodipodi:insensitive="true">
    <polygon
       points="67.248829,320.78453 107.05236,320.78453 107.05236,440.19511 385.67705,440.19511 385.67705,320.78453 425.48058,320.78453 425.48058,479.99864 67.248829,479.99864 "
       id="polygon762" />
    <path
       d="m 150.433,308.952 195.489,41.088 8.218,-39.08 -195.49,-41.106 z m 25.869,-93.607 181.091,84.34 16.87,-36.218 -181.096,-84.34 z M 226.411,126.5 379.936,254.345 405.505,223.642 251.979,95.8005 Z m 99.099,-94.501 -32.059,23.846 119.222,160.3 32.06,-23.843 z M 146.858,400.392 H 345.876 V 360.588 H 146.858 Z"
       id="path764"
       class="alt" />
  </g>
  <g
     inkscape:groupmode="layer"
     id="layer3"
     inkscape:label="vite"
     sodipodi:insensitive="true">
    <path
       d="M 478.519,98.3059 268.07,474.15 c -4.345,7.76 -15.508,7.806 -19.918,0.084 L 33.5312,98.3424 C 28.7274,89.9274 35.9315,79.735 45.4795,81.4393 L 256.152,119.049 c 1.345,0.239 2.721,0.237 4.064,-0.008 L 466.483,81.4926 c 9.516,-1.7317 16.755,8.383 12.036,16.8133 z"
       id="path395" />
    <path
       d="M 356.508,32.1098 200.77,62.5866 c -2.56,0.5011 -4.456,2.6684 -4.61,5.2683 l -9.58,161.5961 c -0.224,3.804 3.274,6.759 6.995,5.903 l 43.359,-9.994 c 4.057,-0.935 7.723,2.633 6.889,6.709 l -12.882,63.001 c -0.866,4.24 3.119,7.866 7.265,6.608 l 26.781,-8.125 c 4.152,-1.26 8.141,2.376 7.263,6.62 l -20.472,98.961 c -1.282,6.191 6.964,9.566 10.401,4.259 l 2.297,-3.545 126.904,-252.939 c 2.124,-4.236 -1.54,-9.064 -6.198,-8.167 l -44.63,8.604 c -4.195,0.807 -7.764,-3.093 -6.579,-7.192 L 363.102,39.2972 c 1.185,-4.1047 -2.396,-8.0099 -6.594,-7.1874 z"
       id="path397"
       class="alt" />
  </g>
  <g
     inkscape:groupmode="layer"
     id="layer4"
     inkscape:label="d3"
     sodipodi:insensitive="true">
    <path
       d="M 452.268,254.133 C 469.577,232.264 480,204.434 480,173.8 480,104.272 426.393,48 360.484,48 H 219.712 c 34.382,24.4706 62.853,55.933 82.253,90.891 h 58.519 c 18.392,0 33.352,15.556 33.352,34.958 0,19.401 -14.963,34.958 -33.352,34.958 h -34.522 c 2.717,17.479 4.175,30.134 4.175,45.788 0,15.416 -1.435,31.119 -4.056,45.103 h 34.406 c 18.393,0 33.352,17.304 33.352,36.706 0,19.401 -14.966,36.705 -33.355,36.705 h -58.141 c -4.358,6.992 -9.246,16.57 -14.515,24.401 -17.906,26.603 -40.72,49.011 -67.109,66.49 H 360.48 c 64.077,0 116.521,-55.045 119.384,-121.919 -0.056,1.083 -0.143,1.363 -0.219,2.44 0.206,-2.965 0.355,-6.338 0.355,-9.362 -0.007,-30.644 -10.433,-59.149 -27.738,-81.026 z"
       id="path734"
       class="alt" />
    <path
       d="m 262.939,371.512 0.01,-0.629 c 0.232,-0.35 0.458,-1.021 0.686,-1.364 0.256,-0.412 0.504,-0.961 0.756,-1.37 0.007,-0.007 0,-0.105 0.01,-0.119 20.348,-32.616 32.235,-71.349 32.235,-113.229 C 296.633,140.639 208.57,48 100.328,48 H 64 v 90.891 h 36.328 c 60.713,0 110.124,51.818 110.124,115.865 0,17.423 -3.688,33.821 -10.233,48.675 -0.02,0.046 -0.043,1.259 -0.067,1.308 -17.544,39.642 -55.678,68.37 -99.821,68.37 H 64 V 464 h 36.328 c 67.592,0 127.291,-37.482 162.611,-92.488 z"
       id="path741" />
  </g>
  <g
     inkscape:groupmode="layer"
     id="layer5"
     inkscape:label="github"
     sodipodi:insensitive="true">
    <path
       d="m 255.998,32.0001 c -123.694,0 -223.9979,100.2819 -223.9979,223.9979 0,98.973 64.1823,182.933 153.1839,212.556 11.191,2.077 15.301,-4.86 15.301,-10.776 0,-5.341 -0.208,-22.987 -0.304,-41.704 -62.317,13.55 -75.466,-26.429 -75.466,-26.429 -10.19,-25.891 -24.8715,-32.775 -24.8715,-32.775 -20.327,-13.903 1.5315,-13.613 1.5315,-13.613 22.49,1.576 34.338,23.083 34.338,23.083 19.978,34.237 52.401,24.34 65.184,18.62 2.01,-14.477 7.815,-24.362 14.221,-29.956 -49.753,-5.657 -102.058,-24.867 -102.058,-110.697 0,-24.456 8.754,-44.438 23.083,-60.128 -2.33,-5.639 -9.997,-28.421 2.166,-59.275 0,0 18.806,-6.021 61.612,22.96 17.871,-4.966 37.038,-7.463 56.077,-7.548 19.029,0.085 38.206,2.574 56.111,7.541 42.754,-28.981 61.538,-22.961 61.538,-22.961 12.193,30.851 4.525,53.637 2.2,59.275 14.362,15.691 23.053,35.673 23.053,60.128 0,86.034 -52.402,104.974 -102.281,110.523 8.038,6.951 15.197,20.587 15.197,41.482 0,29.971 -0.259,54.093 -0.259,61.47 0,5.961 4.035,12.946 15.386,10.746 C 415.892,438.868 480.001,354.933 480.001,255.998 479.997,132.289 379.704,32.0038 255.998,32.0038 Z"
       id="path1016" />
  </g>
  <g
     inkscape:groupmode="layer"
     id="layer6"
     inkscape:label="figma"
     sodipodi:insensitive="true">
    <path
       d="m 181.33333,480 c 41.32713,0 74.66666,-33.33953 74.66666,-74.66667 v -74.66666 h -74.66666 c -41.32713,0 -74.66667,33.33953 -74.66667,74.66666 0,41.32714 33.33954,74.66667 74.66667,74.66667 z m 0,0 M 106.66666,256 c 0,-41.32713 33.33954,-74.66667 74.66667,-74.66667 h 74.66666 v 149.33334 h -74.66666 c -41.32713,0 -74.66667,-33.33954 -74.66667,-74.66667 z m 0,0 m 0,-149.33333 C 106.66666,65.339535 140.0062,32 181.33333,32 h 74.66666 v 149.33333 h -74.66666 c -41.32713,0 -74.66667,-33.33953 -74.66667,-74.66666 z m 0,0 M 255.99999,32 h 74.66667 c 41.32713,0 74.66667,33.339535 74.66667,74.66667 0,41.32713 -33.33954,74.66666 -74.66667,74.66666 h -74.66667 z m 0,0 m 149.33334,224 c 0,41.32713 -33.33954,74.66667 -74.66667,74.66667 -41.32713,0 -74.66667,-33.33954 -74.66667,-74.66667 0,-41.32713 33.33954,-74.66667 74.66667,-74.66667 41.32713,0 74.66667,33.33954 74.66667,74.66667 z m 0,0"
       id="path2021" />
  </g>
  <g
     inkscape:groupmode="layer"
     id="layer7"
     inkscape:label="node"
     sodipodi:insensitive="true">
    <path
       d="M 438.20062,131.26697 274.65261,36.401491 c -10.30349,-5.868655 -23.80065,-5.868655 -34.18565,0 L 75.640787,131.26697 c -10.629527,6.11689 -17.857952,17.61338 -17.857952,29.91014 v 189.47902 c 0,12.29676 7.380279,23.79695 18.013511,29.94718 l 43.455464,24.77877 c 20.8478,10.27014 26.62383,10.27014 36.10853,10.27014 30.87713,0 46.91219,-18.66928 46.91219,-51.23217 V 177.35666 c 0.004,-2.64163 1.65246,-6.5726 -0.94476,-6.5726 h -20.82928 c -2.63793,0 -7.86193,3.93097 -7.86193,6.5689 v 187.06338 c 0,14.43452 -13.39713,28.79865 -37.79799,16.59822 L 89.927061,355.03168 c -1.563493,-0.85214 -2.504553,-2.56753 -2.504553,-4.37555 V 161.17711 c 0,-1.78579 1.715396,-3.579 3.301119,-4.49412 L 255.1423,61.980529 a 5.5870784,5.5870784 0 0 1 5.24252,0 l 162.88111,94.680231 c 1.55979,0.93735 1.31156,2.67498 1.31156,4.51635 v 189.47902 c 0,1.80802 0.34086,3.56787 -1.1967,4.43854 L 259.86983,449.8527 c -1.40048,0.84103 -3.22332,0.84103 -4.76088,0 l -41.92902,-25.00477 c -1.26334,-0.73358 -2.78613,-0.99663 -4.00135,-0.31862 -11.6521,6.60594 -13.8158,7.48401 -24.74543,11.27419 -2.6935,0.93735 -6.66522,2.56383 1.51163,7.14686 l 54.82598,32.43322 a 34.41907,34.41907 0 0 0 17.21695,4.61637 34.467235,34.467235 0 0 0 17.28734,-4.61637 l 162.92928,-94.78027 c 10.63694,-6.19469 16.01283,-17.65042 16.01283,-29.94718 V 161.17711 c -0.004,-12.29676 -5.3796,-23.76361 -16.01654,-29.91014 z M 308.70865,320.63114 c -43.44811,0 -53.01431,-11.98555 -56.20423,-33.58916 -0.37791,-2.32672 -2.349,-5.10914 -4.72017,-5.10914 h -21.22942 c -2.62681,0 -4.74234,3.18626 -4.74234,5.80196 0,27.66123 15.04213,61.17629 86.89616,61.17629 52.01016,0 81.83509,-20.21055 81.83509,-55.97823 0,-35.46387 -23.95998,-44.77072 -74.40299,-51.44706 -50.98765,-6.73932 -56.16718,-10.14418 -56.16718,-22.08897 0,-9.84778 4.38667,-22.98186 42.1402,-22.98186 33.72995,0 46.16379,7.23949 51.28039,29.97683 0.44064,2.13776 2.39335,3.67161 4.5978,3.67161 h 21.31834 c 1.3116,0 2.56013,-0.52981 3.47896,-1.46716 0.89289,-1.00775 1.35977,-2.27114 1.24486,-3.62716 -3.30853,-39.15771 -29.31734,-57.40463 -81.92405,-57.40463 -46.80105,0 -74.71416,19.76225 -74.71416,52.88829 0,35.93069 27.77603,45.85998 72.69866,50.30223 53.74043,5.26845 57.91962,13.12296 57.91962,23.69321 0,18.36178 -14.73832,26.18295 -49.30554,26.18295 z"
       id="path2153" />
  </g>
  <g
     inkscape:groupmode="layer"
     id="layer8"
     inkscape:label="nuxt"
     sodipodi:insensitive="true">
    <path
       d="m 169.437,413.391 -0.994,-1.985 c -1.985,-3.972 -1.985,-7.945 -0.991,-12.911 H 60.2064 L 219.092,116.48 285.625,236.637 307.469,220.747 240.936,100.59 C 239.945,98.6052 232,86.691 219.092,86.691 c -5.961,0 -14.896,1.9845 -21.847,14.893 L 36.3744,386.58 c -0.994,2.983 -7.9452,15.891 -1.9881,26.811 3.9726,5.961 9.9332,11.918 23.8355,11.918 H 193.272 c -13.902,0 -20.853,-5.957 -23.835,-11.914 z"
       id="path2460" />
    <path
       d="M 475.283,387.561 346.19,155.194 c -1.984,-1.984 -8.936,-14.896 -21.847,-14.896 -5.957,0 -14.893,2.979 -21.844,14.896 l -16.881,27.805 v 53.624 l 38.728,-66.532 128.099,228.393 h -48.658 c 0.814,4.728 0.119,9.592 -1.988,13.903 l -0.994,0.994 c -5.957,10.92 -20.853,11.914 -22.838,11.914 h 75.469 c 2.978,0 16.881,-0.991 23.832,-11.914 2.978,-4.967 4.966,-13.903 -1.985,-25.82 z"
       id="path2462"
       class="alt2" />
    <path
       d="m 404.792,413.391 v -0.994 l 0.994,-1.985 c 0.99,-3.972 1.984,-7.945 0.99,-11.917 L 402.807,386.58 301.522,209.823 286.626,183.013 h -0.994 l -14.896,26.81 -101.285,176.754 -3.97,11.918 c -0.962,5.049 -0.265,10.274 1.985,14.896 3.973,5.957 9.93,11.918 23.832,11.918 h 188.675 c 2.978,0 17.875,-0.994 24.826,-11.918 z M 285.628,236.634 377.981,398.495 H 193.279 Z"
       id="path2464"
       class="alt" />
  </g>
  <g
     inkscape:groupmode="layer"
     id="layer10"
     inkscape:label="r"
     sodipodi:insensitive="true">
    <path
       d="m 256,83.268 c -123.711,0 -224,67.165 -224,150.02 0,72.675 77.161,133.274 179.606,147.067 v -44.908 c -54.425,-17.115 -91.581,-51.426 -91.581,-90.969 0,-56.64 76.227,-102.561 170.261,-102.561 94.031,0 163.425,31.413 163.425,102.561 0,36.701 -18.455,62.825 -49.231,79.52 4.214,3.178 7.77,7.252 10.164,11.966 l 1.358,2.293 C 455.588,311.202 480,274.161 480,233.285 480,150.433 379.711,83.2645 256,83.2645 Z m 70.35,262.08 c -9.142,0.9 -18.627,1.435 -28.399,1.617 l 0.007,33.705 c 14.744,-1.855 29.334,-4.77 43.659,-8.722 l -1.754,-3.294 c -2.379,-4.438 -4.714,-8.9 -7.115,-13.324 -1.994,-3.413 -4.129,-6.742 -6.398,-9.979 z"
       id="path2758"
       class="alt" />
    <path
       d="m 373.141,315.626 c 0,0 13.559,4.091 21.434,8.075 2.73,1.386 7.462,4.143 10.871,7.77 2.003,2.119 3.678,4.526 4.97,7.14 l 53.431,90.09 -86.359,0.035 -40.379,-75.831 c 0,0 -8.271,-14.21 -13.36,-18.33 -4.245,-3.437 -6.055,-4.658 -10.251,-4.658 h -20.517 l 0.014,98.766 -76.419,0.032 V 176.421 h 153.457 c 0,0 69.895,1.259 69.895,67.756 0,66.496 -66.783,71.446 -66.783,71.446 z m -33.239,-84.479 -46.263,-0.032 -0.021,42.899 46.284,-0.014 c 0,0 21.434,-0.066 21.434,-21.822 0,-22.19 -21.434,-21.035 -21.434,-21.035 z"
       id="path2760" />
  </g>
  <g
     inkscape:groupmode="layer"
     id="layer11"
     inkscape:label="sass"
     sodipodi:insensitive="true">
    <path
       d="m 32,228.18601 c 0,2.50844 0.738614,4.16407 1.152523,5.77332 2.697545,10.46548 8.495841,19.4466 15.375296,27.63914 9.798228,11.67509 21.798024,21.07368 34.090411,29.91207 10.661728,7.66446 21.54111,15.15764 32.24566,22.765 1.83761,1.30596 3.57532,2.80816 5.56993,4.41028 -1.71629,0.92772 -3.14357,1.74484 -4.62793,2.49772 -14.12643,7.16491 -27.717637,15.19689 -40.245524,24.92732 -7.550273,5.86609 -14.850774,12.09971 -20.006797,20.24587 -8.296023,13.10236 -11.232637,27.06109 -5.048977,41.96539 1.8055,4.35318 4.560137,8.11404 8.445887,10.89366 1.259568,0.89918 2.672568,1.79122 4.146227,2.1409 3.775137,0.88848 7.621637,1.4701 11.44316,2.17303 l 10.822296,-0.01 c 11.967682,-1.06688 22.861338,-5.16673 32.705958,-11.96054 15.386,-10.61891 25.75157,-24.85596 30.20823,-43.12862 3.23991,-13.28077 3.37193,-26.57582 -0.44579,-39.79593 a 41.733457,41.733457 0 0 0 -1.26313,-3.61814 c -0.46387,-1.18821 -1.0098,-2.34429 -1.65207,-3.82509 l 24.53482,-14.10858 0.36776,0.314 c -0.44579,1.45938 -0.92059,2.9152 -1.3238,4.38886 -2.9152,10.64746 -4.85273,21.48045 -4.15693,32.53111 0.74218,11.775 4.02848,22.79711 10.92221,32.63459 5.5735,7.95704 18.85427,8.2532 24.77745,0.26761 2.10166,-2.8367 4.13909,-5.80186 5.66984,-8.96684 3.99993,-8.25796 7.70371,-16.6646 11.52523,-25.01414 l 0.66725,-1.52719 c -0.27451,3.95355 -0.59589,7.42539 -0.74218,10.9008 -0.22837,5.4272 0.0894,10.8223 1.94466,15.98546 1.58784,4.4174 4.28895,7.71797 9.34863,8.29959 3.46114,0.39606 6.21935,-1.18821 8.76346,-3.19709 a 37.052002,37.052002 0 0 0 9.60198,-11.41462 c 6.78311,-12.45652 13.7482,-24.83811 19.89618,-37.60864 6.65109,-13.81242 12.46723,-28.02806 18.64375,-42.07599 l 1.0205,-2.49059 c 1.45939,5.73407 2.47632,11.35039 4.34962,16.66698 2.17659,6.16938 4.87056,12.19248 7.80361,18.04785 1.38802,2.76534 1.22745,4.56014 -0.6958,6.87946 -8.04981,9.70545 -15.96047,19.52866 -23.87827,29.34116 -1.75198,2.16589 -3.49682,4.37102 -4.95621,6.73674 a 13.205842,13.205842 0 0 0 -1.71272,4.867 6.1979322,6.1979322 0 0 0 4.93479,7.03288 34.472206,34.472206 0 0 0 9.66264,0.68866 c 11.05066,-0.81354 21.08439,-4.69216 29.95489,-11.26475 11.49311,-8.51368 15.18261,-20.13168 12.39943,-33.9013 -0.75289,-3.73588 -2.08382,-7.36829 -3.37907,-10.96859 -0.58161,-1.62352 -0.62086,-2.76177 0.43913,-4.27468 9.18807,-13.12021 17.03807,-27.03968 24.33857,-41.2803 0.28878,-0.5602 0.58518,-1.12041 1.09186,-1.71986 2.3657,12.31023 5.92675,24.17443 12.30666,34.93964 -3.25418,3.13643 -6.47625,5.98027 -9.39146,9.11313 -6.41915,6.90087 -11.98552,14.39405 -14.89002,23.53216 -1.24886,3.93928 -2.2087,7.94278 -1.65207,12.14966 0.8635,6.53335 6.21578,10.77948 12.64207,9.29155 13.75177,-3.18282 25.62312,-9.66265 34.29737,-21.14148 5.83754,-7.72868 6.3692,-16.34941 3.925,-25.38048 -0.67082,-2.45491 -1.46653,-4.87057 -2.32289,-7.68586 3.39334,-1.05261 6.70105,-2.31575 10.12293,-3.09718 17.76598,-4.05346 35.33928,-3.34696 52.45942,3.06863 9.99447,3.74659 18.06927,10.01589 22.85777,19.87834 5.84825,12.05688 2.61548,23.49647 -8.74918,31.11811 -1.05975,0.71007 -2.27294,1.27027 -3.15071,2.15875 a 3.1007502,3.1007502 0 0 0 -0.73148,2.39068 c 0.0747,0.43889 1.2346,0.98839 1.90185,0.98125 3.73588,-0.0285 6.76527,-1.98747 9.67334,-3.99993 7.28622,-5.04184 12.60282,-11.82495 13.7482,-20.75611 L 480,332.8515 l -0.27451,-5.81614 c -0.11085,-0.33541 0.0818,-0.66725 0.0571,-0.92059 -1.54859,-13.00602 -8.49584,-23.09327 -18.60093,-31.00037 -11.70364,-9.15238 -25.52321,-12.92038 -40.13848,-13.51627 a 90.635391,90.635391 0 0 0 -34.8433,5.36298 c -3.20066,1.15966 -6.37277,2.53341 -9.59127,3.82866 -0.43199,-0.78143 -0.89562,-1.53075 -1.27741,-2.30505 -3.30414,-6.76527 -7.30764,-13.23082 -8.19255,-20.98804 -0.628,-5.50928 -1.39873,-11.01141 -0.0894,-16.46003 1.25957,-5.24166 2.90093,-10.39411 4.44595,-15.56441 0.79571,-2.66186 0.2355,-4.15336 -2.30504,-5.35227 a 10.183591,10.183591 0 0 0 -2.80459,-0.92059 c -6.24432,-0.90632 -12.403,-0.38893 -18.45107,1.37018 -2.14091,0.62443 -3.69664,1.82334 -4.17121,4.19261 -0.27118,1.35948 -0.82425,2.66187 -1.20961,4.0035 -1.58071,5.57707 -2.70111,11.26119 -5.25593,16.57421 -6.40132,13.32716 -13.70896,26.15121 -21.18787,38.88248 -0.80998,1.37375 -1.66277,2.72252 -2.68327,4.38886 -2.62618,-5.495 -5.42721,-10.42622 -6.27643,-16.20668 -0.95984,-6.53691 -1.7163,-13.06311 -0.0894,-19.55007 1.20962,-4.83845 2.79032,-9.5877 4.24614,-14.36193 0.68866,-2.26937 0.37109,-3.46114 -1.68418,-4.65648 -1.03834,-0.60302 -2.21227,-1.13825 -3.38264,-1.31309 a 41.544343,41.544343 0 0 0 -19.10404,1.56286 c -1.93753,0.628 -2.95446,1.88044 -3.54678,3.87862 -1.74127,5.89463 -3.22563,11.932 -5.66984,17.53761 -9.89813,22.69364 -20.08173,45.26953 -30.25461,67.84185 -2.12307,4.71357 -4.61009,9.263 -7.00434,13.85168 -0.6066,1.16323 -1.4915,2.1873 -2.24796,3.27916 -0.60659,-0.71721 -0.84209,-1.20961 -0.83852,-1.70202 0.019,-2.90094 -0.32827,-5.8875 0.22456,-8.6921 a 614.40169,614.40169 0 0 1 5.63059,-25.33052 c 1.67704,-6.94368 3.62884,-13.82314 5.48786,-20.72043 0.62443,-2.30862 0.63514,-4.46737 -1.02407,-6.40846 -2.78675,-3.25061 -8.61002,-3.96425 -12.06402,-1.45938 l -1.52718,0.8635 0.29639,-2.46205 c 0.72791,-5.27734 0.87421,-10.53684 -0.57447,-15.73568 -1.8055,-6.47982 -6.42987,-10.20857 -13.15232,-10.00162 -3.13287,0.0963 -6.42273,0.63157 -9.32366,1.77339 -12.19962,4.78136 -21.58037,13.24866 -29.56596,23.43582 a 9.2487278,9.2487278 0 0 1 -2.70111,2.33359 c -10.32275,5.72336 -20.67762,11.37536 -31.02891,17.04877 l -11.52166,6.31212 c -3.09005,-2.94732 -5.89821,-6.00525 -9.08459,-8.59932 -9.73044,-7.93564 -19.61787,-15.67502 -29.416096,-23.52146 -8.684955,-6.95438 -17.098728,-14.19779 -23.535728,-23.40727 -4.788501,-6.85091 -7.874978,-14.34766 -8.171137,-22.81852 -0.374421,-10.79375 2.686841,-20.65621 8.181841,-29.83714 7.029319,-11.74646 16.617024,-21.17359 27.15743,-29.71225 11.15057,-9.0275 23.21103,-16.69195 35.71037,-23.68916 17.48766,-9.78752 35.47486,-18.45107 54.76089,-24.17086 19.77486,-5.8661 39.83875,-9.22375 60.53421,-6.88303 8.13545,0.92059 16.03541,2.78318 23.28952,6.76171 5.55566,3.04366 10.11223,7.02932 12.23173,13.25936 2.09095,6.13014 2.02673,12.34234 0.57804,18.56882 -2.94375,12.60995 -9.84818,23.00407 -18.5367,32.29204 -14.25132,15.22544 -31.6355,25.591 -51.20698,32.43835 a 140.86469,140.86469 0 0 1 -34.8433,7.43252 c -9.73757,0.81711 -19.27175,-0.0461 -28.49193,-3.43259 -6.10516,-2.24439 -11.42175,-5.67698 -15.69644,-10.65816 -0.76359,-0.89205 -1.74127,-1.85902 -3.16497,-1.02407 -1.39516,0.82068 -1.64137,2.14805 -1.17393,3.49325 0.78143,2.23368 1.5022,4.56014 2.71895,6.55832 3.05793,5.01329 7.51816,8.64927 12.42798,11.76786 9.4307,5.99812 19.97111,8.01414 30.90045,8.48157 16.58491,0.71721 32.76662,-1.75911 48.71996,-6.20863 22.77571,-6.35137 42.57912,-17.56973 58.4611,-35.26792 13.22368,-14.73659 22.66866,-31.36788 24.69181,-51.44961 0.98839,-9.80179 -0.0642,-19.40377 -4.6529,-28.34564 -4.97772,-9.68761 -12.89195,-16.89177 -22.35476,-21.85511 -13.78032,-7.225568 -28.65251,-11.432455 -44.00283,-11.432455 h -15.37886 c -18.59023,0 -36.56316,5.327296 -54.03298,11.682225 -13.22368,4.81348 -26.19046,10.49403 -38.779,16.78116 -27.41434,13.69825 -52.944687,30.21537 -73.914892,52.92684 -10.447637,11.31471 -19.293161,23.79978 -24.381388,38.50069 a 144.48996,144.48996 0 0 0 -3.96425,13.36641 m 99.33462,128.50093 c -1.18821,15.91053 -8.3995,28.80951 -20.18521,39.25714 -6.62968,5.87323 -14.233475,10.05514 -23.089703,11.52523 -3.211364,0.53166 -6.497659,0.66011 -9.612682,-0.67082 -4.442387,-1.89827 -5.437909,-5.84111 -5.523546,-10.04086 -0.131785,-6.69391 2.212273,-12.74555 5.427205,-18.50459 4.196182,-7.50746 10.347728,-13.23082 16.916751,-18.57596 10.347725,-8.42448 21.573225,-15.5537 33.069915,-22.2833 l 0.86706,-0.35681 c 1.77696,6.56545 2.62262,13.04884 2.13021,19.64997 z m 89.76832,-69.1478 c -0.83852,5.0811 -1.88757,10.16576 -3.37193,15.08985 -5.13105,17.0452 -11.72148,33.56232 -18.84714,49.8582 -1.31666,3.01512 -3.23277,5.76619 -4.89911,8.6243 a 6.0266594,6.0266594 0 0 1 -1.0098,1.19177 c -2.06241,2.03743 -4.01777,1.93039 -5.05968,-0.73504 -1.21318,-3.09718 -1.95893,-6.41203 -2.6012,-9.69119 -0.43199,-2.20156 -0.32828,-4.51375 -0.46387,-6.76884 0.13892,-16.03541 5.03114,-30.60786 13.33073,-44.17409 3.42189,-5.59491 7.14707,-10.92577 12.83832,-14.46541 a 22.372501,22.372501 0 0 1 5.69125,-2.51914 c 3.03295,-0.85279 4.89555,0.5495 4.39243,3.58959 z m 61.24428,78.02901 22.01211,-25.70162 c 0.91703,9.54489 -15.3075,28.59898 -22.01211,25.70162 z m 70.30389,-17.29498 c -1.55573,0.89205 -3.25062,1.53432 -4.84559,2.35857 -1.45939,0.75645 -1.94109,-0.007 -1.98391,-1.26314 a 8.5101141,8.5101141 0 0 1 0.3316,-2.57266 c 2.9723,-10.48332 8.44232,-19.43232 16.58134,-26.71141 l 0.57091,-0.29259 c 3.87148,10.82943 -0.60302,22.72219 -10.65459,28.48123 z"
       id="path3195" />
  </g>
  <g
     inkscape:groupmode="layer"
     id="layer12"
     inkscape:label="stylus"
     sodipodi:insensitive="true">
    <path
       d="m 287.195,197.422 c -8.326,-6.609 -31.652,4.43 -38.334,20.863 -8.322,20.863 -20.611,51.264 -32.69,64.589 -12.751,14.004 -13.999,3.18 -12.751,-4.894 2.962,-19.041 21.434,-63.124 31.689,-75.521 -3.753,-5.573 -28.365,-4.787 -45.441,21.756 -6.359,10.003 -20.934,43.369 -37.262,69.698 -3.573,5.68 -7.969,1.715 -4.573,-11.61 3.858,-15.397 15.256,-57.659 29.975,-90.918 38.51,-7.645 79.412,-13.004 110.74,-13.111 4.22,-1.143 7.144,-4.894 0,-5.144 -27.003,-0.929 -67.552,2.286 -105.491,7.145 7.145,-14.576 15.147,-26.186 23.116,-31.116 -8.646,-5.466 -26.188,-3.287 -36.224,11.503 -4.897,7.446 -9.274,15.216 -13.114,23.257 -27.65,4.215 -51.442,9.181 -63.517,13.718 -12.0747,4.537 -11.1793,19.934 -3.5724,17.076 19.9624,-7.12 40.3534,-12.978 61.0544,-17.541 -15.113,34.188 -26.974,74.521 -29.832,90.989 -7.144,39.868 17.648,39.654 29.723,23.936 13.146,-17.255 40.473,-77.772 44.583,-84.131 1.248,-2.179 2.968,-1.036 2.039,0.929 -30.546,60.945 -27.903,84.523 -3.182,79.308 11.184,-2.394 30.399,-21.435 35.439,-31.438 1.038,-2.393 3.181,-2.179 2.753,-1.143 -19.186,50.193 -43.908,90.847 -60.412,103.636 -15.038,11.503 -26.183,-13.432 27.007,-49.228 7.86,-5.359 4.216,-12.646 -4.677,-10.146 -27.546,4.323 -106.1387,29.294 -140.5767,53.194 -2.6055,1.821 -5.0014,3.286 -4.8919,7.144 0,2.179 3.8582,1.358 5.6778,0.215 44.6551,-26.758 81.2368,-37.261 123.1428,-46.013 0.586,0.226 1.234,0.226 1.82,0 1.929,-0.464 1.824,0.572 0.572,1.358 -2.858,1.607 -5.678,3.072 -6.393,3.286 -28.26,11.039 -45.336,35.438 -39.296,47.835 5.144,10.717 32.79,6.823 45.903,-0.215 32.152,-17.433 55.477,-51.621 71.448,-98.777 13.899,-41.725 31.437,-89.06 35.548,-90.489 z m 186.727,96.491 c -52.3,-6.823 -165.078,2.286 -214.882,15.504 -14.824,3.858 -10.718,11.718 -3.177,10.253 l 3.572,-0.786 c 40.906,-7.966 140.143,-14.933 198.016,-3.858 6.792,1.215 27.655,-19.72 16.471,-21.113 z M 301.77,287.768 c 14.609,-7.287 36.401,-52.407 50.476,-77.128 1.038,-1.822 2.858,-0.357 1.824,0.929 -36.009,61.981 -20.72,69.162 -6.501,68.233 19.181,-1.143 36.581,-28.508 40.616,-34.51 1.609,-2.393 2.5,-0.464 1.609,1.251 -0.933,2.858 -4.22,7.859 -7.144,14.682 -4.325,9.682 0.214,13.433 4.001,15.147 5.93,2.858 22.111,1.036 24.611,-8.895 -16.18,-0.357 22.545,-76.664 26.546,-81.344 -10.718,-6.251 -27.579,0.572 -35.191,15.612 -16.29,32.152 -29.97,58.23 -38.511,58.659 -16.647,0.929 19.149,-71.877 25.007,-74.163 -3.572,-5.145 -26.183,-2.966 -38.829,16.647 -4.573,7.145 -32.366,56.265 -39.297,64.303 -12.075,14.29 -13.003,2.037 -9.574,-12.289 1.515,-6.137 3.377,-12.183 5.573,-18.112 7.964,-17.862 16.505,-23.685 21.754,-29.508 35.19,-39.082 55.372,-70.734 47.408,-83.166 -7.145,-11.038 -30.651,-6.144 -45.798,16.648 -27.903,41.797 -53.587,99.098 -56.983,125.32 -3.391,26.221 15.543,28.043 28.403,21.684 z m 14.966,-76.663 c 1.248,-2.858 2.039,-3.573 4.216,-8.431 12.398,-27.579 27.936,-56.623 38.939,-70.198 6.716,-7.145 16.185,2.501 -0.929,28.579 -9.793,15.212 -21.134,29.374 -33.833,42.262 -3.177,3.572 -6.035,6.501 -7.145,8.216 -1.033,1.393 -2.067,1.143 -1.248,-0.428 z"
       id="path3144" />
    <path
       d="m 101.034,332.424 c 11.613,-13.897 13.004,-28.258 4.001,-54.908 -5.6773,-16.862 -15.1465,-29.866 -8.2161,-40.333 7.3971,-11.182 23.1161,-0.357 10.0411,14.576 l 2.605,1.821 c 15.719,1.822 23.473,-19.719 11.718,-25.864 -30.9706,-16.183 -58.0876,14.933 -46.1224,50.943 5.149,15.254 12.2938,31.437 6.5065,44.333 -5.0061,11.039 -14.6849,17.541 -21.1867,17.862 -13.5752,0.572 -4.4298,-30.544 11.0411,-38.403 1.3575,-0.679 3.2866,-1.608 1.4623,-3.858 -19.2576,-2.179 -30.5417,6.716 -37.0101,19.148 -18.8957,36.224 35.9051,49.549 65.1603,14.683 z M 439.413,226.252 c 4.43,10.931 11.184,21.756 7.145,31.33 -3.287,8.216 -7.645,11.61 -12.432,12.432 -6.716,1.143 -4.892,-19.934 6.611,-26.186 1.034,-0.572 2.501,-3.287 1.138,-4.894 -14.575,-0.786 -22.787,6.144 -27.217,15.397 -12.865,27.007 29.147,34.402 49.795,7.859 8.217,-10.717 8.54,-21.077 0.681,-40.118 -5.001,-12.075 -12.646,-21.077 -7.859,-29.044 4.787,-7.966 17.433,-1.143 8.216,10.146 l 2.034,1.143 c 11.97,0.679 16.867,-15.254 7.755,-19.255 -24.045,-10.325 -46.48,15.54 -35.867,41.19 z"
       id="path3142" />
  </g>
  <g
     inkscape:groupmode="layer"
     id="layer13"
     inkscape:label="tailwind"
     sodipodi:insensitive="true">
    <path
       d="m 256,140.806 c -51.201,0 -83.19,25.59 -96,76.791 19.194,-25.593 41.601,-35.19 67.194,-28.791 14.613,3.642 25.056,14.238 36.621,25.98 C 282.637,233.887 304.423,256 352,256 c 51.198,0 83.19,-25.593 96,-76.806 -19.197,25.608 -41.601,35.205 -67.197,28.806 -14.61,-3.645 -25.041,-14.238 -36.621,-25.98 C 325.372,162.919 303.592,140.806 256,140.806 Z M 160,256 c -51.198,0 -83.19,25.593 -96,76.806 19.194,-25.608 41.598,-35.205 67.194,-28.806 14.613,3.645 25.056,14.238 36.621,25.98 18.822,19.101 40.608,41.214 88.185,41.214 51.198,0 83.19,-25.59 96,-76.791 -19.197,25.593 -41.601,35.19 -67.197,28.791 -14.61,-3.642 -25.041,-14.238 -36.621,-25.98 C 229.372,278.113 207.592,256 160,256 Z m 0,0"
       id="path3452" />
  </g>
  <g
     inkscape:groupmode="layer"
     id="layer14"
     inkscape:label="wakatime"
     sodipodi:insensitive="true">
    <path
       d="M 256,32 C 132.289,32 32,132.289 32,256 32,379.71275 132.289,480 256,480 379.71275,480 480,379.71275 480,256 480,132.289 379.71275,32 256,32 m 0,59.158749 c 90.89325,0 164.84125,73.948001 164.84125,164.841251 0,90.89499 -73.948,164.84125 -164.84125,164.84125 C 165.10675,420.84125 91.158749,346.89499 91.158749,256 91.158749,165.10675 165.10675,91.158749 256,91.158749"
       id="path3508" />
    <path
       d="m 223.00983,321.02476 h -0.24088 c -4.1612,-0.0753 -8.05577,-2.0631 -10.558,-5.38878 l -61.5489,-81.81866 c -4.28282,-5.96814 -3.01421,-14.26434 2.85638,-18.67988 5.8706,-4.41556 14.19316,-3.33331 18.73924,2.4368 l 51.14438,67.98431 14.62943,-18.072 c 2.5655,-3.16801 6.42392,-5.00871 10.50044,-5.00936 h 0.0171 c 4.08513,0.002 7.94923,1.85547 10.50896,5.03919 l 14.04749,17.45171 80.3457,-103.58479 c 4.59224,-5.83382 13.03148,-6.86892 18.89747,-2.31786 5.86599,4.55106 6.96051,12.98278 2.45086,18.88068 l -90.82481,117.09724 c -2.53257,3.26478 -6.41987,5.19115 -10.55161,5.22892 h -0.12144 c -4.09083,9e-4 -7.96174,-1.85181 -10.52603,-5.03918 l -14.27562,-17.73311 -14.99181,18.51542 c -2.56472,3.16898 -6.42365,5.00992 -10.50044,5.00935"
       id="path3930" />
  </g>
</svg>
