<svg viewBox="0 0 512 512" xmlns="http://www.w3.org/2000/svg">
	<style>
		path {
			fill: #EEE;
			stroke-width: 8pt;
			stroke: #111;
		}
	</style>
	<g>
		<path d="M416 224c0-16-16-32-32-32s-64 48-64 64 48 64 64 64 32-16 32-32z"/>
		<path d="M336 48S160 200 160 256s176 208 176 208c16 16 32 16 64 16s32-16 16-32c0 0-160-160-160-192S416 64.055 416 64.055C432 48 432 32 400 32s-48 0-64 16zM96 64c0-16 16-32 32-32s64 48 64 64-48 64-64 64-32-16-32-32zM96 384c0-16 16-32 32-32s64 48 64 64-48 64-64 64-32-16-32-32z"/>
	</g>
</svg>
